<?xml version="1.0" encoding="UTF-8" standalone="no"?>
<!DOCTYPE svg PUBLIC "-//W3C//DTD SVG 1.1//EN" "http://www.w3.org/Graphics/SVG/1.1/DTD/svg11.dtd">
<svg width="100%" height="100%" viewBox="0 0 41 41" version="1.1" xmlns="http://www.w3.org/2000/svg" xmlns:xlink="http://www.w3.org/1999/xlink" xml:space="preserve" xmlns:serif="http://www.serif.com/" style="fill-rule:evenodd;clip-rule:evenodd;stroke-linejoin:round;stroke-miterlimit:2;">
    <g transform="matrix(1,0,0,1,-4802,-493)">
        <g id="densite" transform="matrix(0.225352,0,0,0.112676,3730.52,473.892)">
            <rect x="4758" y="170" width="177.5" height="355" style="fill:none;"/>
            <g transform="matrix(3.77188,0,0,7.54375,-13159.2,-3522.8)">
                <circle cx="4773.75" cy="513.047" r="20" style="fill:white;"/>
                <clipPath id="_clip1">
                    <circle cx="4773.75" cy="513.047" r="20"/>
                </clipPath>
                <g clip-path="url(#_clip1)">
                    <g transform="matrix(0.225352,0,0,0.112676,3681.52,473.892)">
                        <g transform="matrix(6.33929,0,0,12.6786,-25718.1,-6245.95)">
                            <rect x="4807.5" y="506.047" width="7" height="7" style="fill:rgb(46,46,58);"/>
                        </g>
                        <g transform="matrix(6.33929,0,0,12.6786,-25718.1,-6157.2)">
                            <rect x="4807.5" y="506.047" width="7" height="7" style="fill:rgb(46,46,58);fill-opacity:0.78;"/>
                        </g>
                        <g transform="matrix(6.33929,0,0,12.6786,-25718.1,-6068.45)">
                            <rect x="4807.5" y="506.047" width="7" height="7" style="fill:rgb(46,46,58);fill-opacity:0.6;"/>
                        </g>
                        <g transform="matrix(6.33929,0,0,12.6786,-25718.1,-5979.7)">
                            <rect x="4807.5" y="506.047" width="7" height="7" style="fill:rgb(46,46,58);fill-opacity:0.5;"/>
                        </g>
                        <g transform="matrix(6.33929,0,0,12.6786,-25673.7,-6245.95)">
                            <rect x="4807.5" y="506.047" width="7" height="7" style="fill:rgb(46,46,58);fill-opacity:0.1;"/>
                        </g>
                        <g transform="matrix(6.33929,0,0,12.6786,-25673.7,-6157.2)">
                            <rect x="4807.5" y="506.047" width="7" height="7" style="fill:rgb(46,46,58);fill-opacity:0.7;"/>
                        </g>
                        <g transform="matrix(6.33929,0,0,12.6786,-25673.7,-6068.45)">
                            <rect x="4807.5" y="506.047" width="7" height="7" style="fill:rgb(46,46,58);fill-opacity:0.4;"/>
                        </g>
                        <g transform="matrix(6.33929,0,0,12.6786,-25673.7,-5979.7)">
                            <rect x="4807.5" y="506.047" width="7" height="7" style="fill:rgb(46,46,58);fill-opacity:0.3;"/>
                        </g>
                        <g transform="matrix(6.33929,0,0,12.6786,-25629.4,-6245.95)">
                            <rect x="4807.5" y="506.047" width="7" height="7" style="fill:rgb(46,46,58);fill-opacity:0.3;"/>
                        </g>
                        <g transform="matrix(6.33929,0,0,12.6786,-25629.4,-6157.2)">
                            <rect x="4807.5" y="506.047" width="7" height="7" style="fill:rgb(46,46,58);fill-opacity:0.3;"/>
                        </g>
                        <g transform="matrix(6.33929,0,0,12.6786,-25629.4,-6068.45)">
                            <rect x="4807.5" y="506.047" width="7" height="7" style="fill:rgb(46,46,58);fill-opacity:0.1;"/>
                        </g>
                        <g transform="matrix(6.33929,0,0,12.6786,-25629.4,-5979.7)">
                            <rect x="4807.5" y="506.047" width="7" height="7" style="fill:rgb(46,46,58);fill-opacity:0.4;"/>
                        </g>
                        <g transform="matrix(6.33929,0,0,12.6786,-25585,-6245.95)">
                            <rect x="4807.5" y="506.047" width="7" height="7" style="fill:rgb(46,46,58);fill-opacity:0.5;"/>
                        </g>
                        <g transform="matrix(6.33929,0,0,12.6786,-25585,-6157.2)">
                            <rect x="4807.5" y="506.047" width="7" height="7" style="fill:rgb(46,46,58);fill-opacity:0.1;"/>
                        </g>
                        <g transform="matrix(6.33929,0,0,12.6786,-25585,-6068.45)">
                            <rect x="4807.5" y="506.047" width="7" height="7" style="fill:rgb(46,46,58);fill-opacity:0.34;"/>
                        </g>
                        <g transform="matrix(6.33929,0,0,12.6786,-25585,-5979.7)">
                            <rect x="4807.5" y="506.047" width="7" height="7" style="fill:rgb(46,46,58);fill-opacity:0.8;"/>
                        </g>
                    </g>
                </g>
            </g>
        </g>
    </g>
</svg>
