<?xml version="1.0" encoding="UTF-8" standalone="no"?>
<!DOCTYPE svg PUBLIC "-//W3C//DTD SVG 1.1//EN" "http://www.w3.org/Graphics/SVG/1.1/DTD/svg11.dtd">
<svg width="100%" height="100%" viewBox="0 0 40 40" version="1.1" xmlns="http://www.w3.org/2000/svg" xmlns:xlink="http://www.w3.org/1999/xlink" xml:space="preserve" xmlns:serif="http://www.serif.com/" style="fill-rule:evenodd;clip-rule:evenodd;stroke-linecap:round;stroke-miterlimit:2;">
    <g transform="matrix(1,0,0,1,-4753.75,-493.047)">
        <g id="route" transform="matrix(0.225352,0,0,0.112676,3681.52,473.892)">
            <rect x="4758" y="170" width="177.5" height="355" style="fill:none;"/>
            <clipPath id="_clip1">
                <rect x="4758" y="170" width="177.5" height="355"/>
            </clipPath>
            <g clip-path="url(#_clip1)">
                <g transform="matrix(4.4375,0,0,8.875,-16336.8,-4205.79)">
                    <circle cx="4773.75" cy="513.047" r="20" style="fill:white;"/>
                </g>
                <g transform="matrix(0.866025,1,-0.25,0.866025,736.236,-4800.34)">
                    <g transform="matrix(2.6625,0,0,5.325,-7841.16,-2384.47)">
                        <path d="M4753.75,546.38L4753.86,479.713" style="fill:none;stroke:rgb(46,46,58);stroke-width:1.67px;"/>
                    </g>
                    <g transform="matrix(2.6625,0,0,5.325,-7810.1,-2384.47)">
                        <path d="M4754.58,546.381C4754.58,546.841 4754.2,547.214 4753.74,547.213C4753.28,547.213 4752.91,546.839 4752.91,546.379L4752.92,543.521C4752.92,543.062 4753.29,542.689 4753.75,542.69C4754.21,542.69 4754.59,543.064 4754.59,543.524L4754.58,546.381ZM4754.6,535.905C4754.6,536.365 4754.22,536.738 4753.76,536.737C4753.3,536.736 4752.93,536.362 4752.93,535.902L4752.94,530.188C4752.94,529.728 4753.32,529.355 4753.78,529.356C4754.23,529.357 4754.61,529.731 4754.61,530.191L4754.6,535.905ZM4754.62,522.572C4754.62,523.032 4754.24,523.405 4753.78,523.404C4753.32,523.403 4752.95,523.029 4752.95,522.569L4752.96,516.855C4752.96,516.395 4753.34,516.022 4753.8,516.023C4754.26,516.024 4754.63,516.398 4754.63,516.858L4754.62,522.572ZM4754.64,509.239C4754.64,509.698 4754.27,510.071 4753.81,510.07C4753.35,510.07 4752.97,509.696 4752.98,509.236L4752.98,503.522C4752.98,503.062 4753.36,502.689 4753.82,502.69C4754.28,502.69 4754.65,503.064 4754.65,503.524L4754.64,509.239ZM4754.66,495.905C4754.66,496.365 4754.29,496.738 4753.83,496.737C4753.37,496.736 4753,496.362 4753,495.902L4753.01,490.188C4753.01,489.728 4753.38,489.355 4753.84,489.356C4754.3,489.357 4754.67,489.731 4754.67,490.191L4754.66,495.905ZM4754.69,482.572C4754.69,483.032 4754.31,483.405 4753.85,483.404C4753.39,483.403 4753.02,483.029 4753.02,482.569L4753.02,479.712C4753.03,479.252 4753.4,478.879 4753.86,478.88C4754.32,478.881 4754.69,479.255 4754.69,479.715L4754.69,482.572Z" style="fill:rgb(46,46,58);"/>
                    </g>
                    <g transform="matrix(2.6625,0,0,5.325,-7779.04,-2384.47)">
                        <path d="M4753.75,546.38L4753.86,479.713" style="fill:none;stroke:rgb(46,46,58);stroke-width:1.67px;"/>
                    </g>
                </g>
            </g>
        </g>
    </g>
</svg>
